<mxfile host="app.diagrams.net" modified="2023-03-10T19:57:09.016Z" agent="5.0 (Windows NT 10.0; Win64; x64) AppleWebKit/537.36 (KHTML, like Gecko) Chrome/110.0.0.0 Safari/537.36 Edg/110.0.1587.63" etag="VIrsllyFMd8ZWdjpxuwS" version="20.8.23" type="github">
  <diagram name="PÃ¡gina-1" id="FC4PTCTkbMaiV6t9FT3G">
    <mxGraphModel dx="607" dy="328" grid="1" gridSize="10" guides="1" tooltips="1" connect="1" arrows="1" fold="1" page="1" pageScale="1" pageWidth="827" pageHeight="1169" math="0" shadow="0">
      <root>
        <mxCell id="0" />
        <mxCell id="1" parent="0" />
        <mxCell id="3IYnzW8olm6mCEPxByMF-3" style="edgeStyle=orthogonalEdgeStyle;rounded=0;orthogonalLoop=1;jettySize=auto;html=1;entryX=0.5;entryY=0;entryDx=0;entryDy=0;" edge="1" parent="1" source="3IYnzW8olm6mCEPxByMF-1" target="3IYnzW8olm6mCEPxByMF-2">
          <mxGeometry relative="1" as="geometry" />
        </mxCell>
        <mxCell id="3IYnzW8olm6mCEPxByMF-1" value="LINHA: PRESENTES" style="rounded=0;whiteSpace=wrap;html=1;" vertex="1" parent="1">
          <mxGeometry x="360" y="40" width="120" height="40" as="geometry" />
        </mxCell>
        <mxCell id="3IYnzW8olm6mCEPxByMF-5" style="edgeStyle=orthogonalEdgeStyle;rounded=0;orthogonalLoop=1;jettySize=auto;html=1;" edge="1" parent="1" source="3IYnzW8olm6mCEPxByMF-2" target="3IYnzW8olm6mCEPxByMF-4">
          <mxGeometry relative="1" as="geometry" />
        </mxCell>
        <mxCell id="3IYnzW8olm6mCEPxByMF-2" value="FAMILIA: RELOGIOS" style="rounded=0;whiteSpace=wrap;html=1;" vertex="1" parent="1">
          <mxGeometry x="360" y="120" width="120" height="40" as="geometry" />
        </mxCell>
        <mxCell id="3IYnzW8olm6mCEPxByMF-8" style="edgeStyle=orthogonalEdgeStyle;rounded=0;orthogonalLoop=1;jettySize=auto;html=1;entryX=0.5;entryY=0;entryDx=0;entryDy=0;" edge="1" parent="1" source="3IYnzW8olm6mCEPxByMF-4" target="3IYnzW8olm6mCEPxByMF-6">
          <mxGeometry relative="1" as="geometry" />
        </mxCell>
        <mxCell id="3IYnzW8olm6mCEPxByMF-9" style="edgeStyle=orthogonalEdgeStyle;rounded=0;orthogonalLoop=1;jettySize=auto;html=1;" edge="1" parent="1" source="3IYnzW8olm6mCEPxByMF-4" target="3IYnzW8olm6mCEPxByMF-7">
          <mxGeometry relative="1" as="geometry" />
        </mxCell>
        <mxCell id="3IYnzW8olm6mCEPxByMF-4" value="PRODUTO: RELOGIO DE PULSO" style="rounded=0;whiteSpace=wrap;html=1;" vertex="1" parent="1">
          <mxGeometry x="330" y="200" width="180" height="40" as="geometry" />
        </mxCell>
        <mxCell id="3IYnzW8olm6mCEPxByMF-6" value="GRUPO: MASC" style="rounded=0;whiteSpace=wrap;html=1;" vertex="1" parent="1">
          <mxGeometry x="280" y="280" width="120" height="40" as="geometry" />
        </mxCell>
        <mxCell id="3IYnzW8olm6mCEPxByMF-7" value="GRUPO: FEM" style="rounded=0;whiteSpace=wrap;html=1;" vertex="1" parent="1">
          <mxGeometry x="440" y="280" width="120" height="40" as="geometry" />
        </mxCell>
      </root>
    </mxGraphModel>
  </diagram>
</mxfile>
